<svg width="40" height="40" viewBox="0 0 40 40" fill="none" xmlns="http://www.w3.org/2000/svg">
<path d="M27.5827 37.362H2.83912V2.63781H27.5826V11.2451L30.2205 8.60723V1.31891C30.2205 0.590552 29.6299 0 28.9016 0H1.52021C0.79178 0 0.201065 0.590552 0.201065 1.31891V38.6811C0.201065 39.4094 0.791699 40 1.52021 40H28.9016C29.6299 40 30.2205 39.4094 30.2205 38.6811V24.1674L27.5827 26.8053V37.362Z" fill="#DCDCDC"/>
<path d="M23.6941 5.80138H6.72755C6.17122 5.80138 5.71977 6.25283 5.71977 6.80932C5.71977 7.36572 6.17122 7.81717 6.72755 7.81717H23.6941C24.2505 7.81717 24.7019 7.36572 24.7019 6.80932C24.702 6.25283 24.2505 5.80138 23.6941 5.80138Z" fill="#DCDCDC"/>
<path d="M24.702 12.1847C24.702 11.6283 24.2505 11.1768 23.6941 11.1768H6.72755C6.17122 11.1768 5.71977 11.6283 5.71977 12.1847C5.71977 12.7412 6.17122 13.1926 6.72755 13.1926H23.6941C24.2505 13.1926 24.702 12.7413 24.702 12.1847Z" fill="#DCDCDC"/>
<path d="M22.2761 16.5524H6.72755C6.17122 16.5524 5.71977 17.0039 5.71977 17.5603C5.71977 18.1168 6.17122 18.5682 6.72755 18.5682H20.2603L22.2761 16.5524Z" fill="#DCDCDC"/>
<path d="M16.6382 23.2343C16.7746 22.7776 16.9695 22.3399 17.207 21.9278H6.72762C6.1713 21.9278 5.71985 22.3793 5.71985 22.9358C5.71985 23.4922 6.1713 23.9437 6.72762 23.9437H16.4269L16.6382 23.2343Z" fill="#DCDCDC"/>
<path d="M6.72755 27.3035C6.17122 27.3035 5.71977 27.7549 5.71977 28.3114C5.71977 28.8677 6.17122 29.3192 6.72755 29.3192H15.581C15.3197 28.6854 15.2522 27.9852 15.4367 27.3035H6.72755Z" fill="#DCDCDC"/>
<path d="M38.9748 7.63417C38.4467 7.10581 37.7306 6.80932 36.9846 6.80932C36.2386 6.80932 35.5227 7.10581 34.9951 7.63352L20.0837 22.5454C19.6768 22.9521 19.3783 23.4528 19.2135 24.004L18.0253 27.9872C17.9747 28.1558 18.0207 28.3382 18.1454 28.4629C18.2366 28.5542 18.3587 28.6033 18.4839 28.6033C18.5293 28.6033 18.5758 28.5968 18.6211 28.5831L22.604 27.3947C23.1554 27.23 23.6561 26.9314 24.0628 26.5246L38.9747 11.6133C39.5022 11.0857 39.7989 10.3699 39.7989 9.62379C39.7989 8.87755 39.5023 8.16172 38.9748 7.63417Z" fill="#DCDCDC"/>
</svg>
