<svg width="180" height="180" viewBox="0 0 180 180" fill="none" xmlns="http://www.w3.org/2000/svg">
<circle cx="90" cy="90" r="86" stroke="#3E3E3E" stroke-width="8"/>
<path fill-rule="evenodd" clip-rule="evenodd" d="M27.9769 145.732C24.4582 145.732 22.5576 149.746 24.9956 152.283C41.3721 169.325 64.3965 179.932 89.8983 179.932C139.604 179.932 179.898 139.638 179.898 89.9319C179.898 41.5674 141.749 2.11317 93.9005 0.0193384C91.6935 -0.0772403 89.8983 1.72281 89.8983 3.93194C89.8983 6.14108 91.6918 7.92181 93.8984 8.0278C137.328 10.1138 171.898 45.9857 171.898 89.9319C171.898 135.219 135.186 171.932 89.8983 171.932C66.8241 171.932 45.9758 162.401 31.0753 147.062C30.26 146.223 29.1468 145.732 27.9769 145.732Z" fill="#CDCDCD"/>
</svg>
