<svg width="58" height="58" viewBox="0 0 58 58" fill="none" xmlns="http://www.w3.org/2000/svg">
<path d="M28.8879 0.792969C12.9356 0.792969 0 13.7263 0 29.6808C0 42.4444 8.27723 53.2728 19.7553 57.0926C21.199 57.36 21.7292 56.4659 21.7292 55.7029C21.7292 55.0141 21.7022 52.7383 21.69 50.3245C13.6531 52.072 11.9573 46.9161 11.9573 46.9161C10.6432 43.577 8.74984 42.6894 8.74984 42.6894C6.12897 40.8963 8.94741 40.933 8.94741 40.933C11.8483 41.137 13.3758 43.9101 13.3758 43.9101C15.9523 48.3265 20.1337 47.0496 21.7822 46.3116C22.0414 44.4443 22.7901 43.1701 23.6162 42.4487C17.1999 41.7181 10.4547 39.2411 10.4547 28.1721C10.4547 25.0184 11.5832 22.4412 13.4313 20.4183C13.1313 19.6905 12.1426 16.7525 13.7111 12.7734C13.7111 12.7734 16.1369 11.9969 21.6573 15.7345C23.9615 15.0943 26.4328 14.7735 28.8879 14.7626C31.3429 14.7735 33.816 15.0943 36.1247 15.7345C41.6386 11.9969 44.061 12.7734 44.061 12.7734C45.6333 16.7525 44.6441 19.6905 44.3442 20.4183C46.1963 22.4412 47.3171 25.0182 47.3171 28.1721C47.3171 39.2674 40.5592 41.7106 34.1267 42.4256C35.1627 43.3221 36.086 45.0803 36.086 47.7752C36.086 51.6404 36.0524 54.7513 36.0524 55.7029C36.0524 56.4716 36.5724 57.3724 38.0369 57.0888C49.5087 53.2646 57.7755 42.4401 57.7755 29.6808C57.7755 13.7263 44.8417 0.792969 28.8879 0.792969Z" fill="#6F7071"/>
<path d="M10.8195 41.9445C10.7561 42.0879 10.53 42.1309 10.3245 42.0326C10.1149 41.9383 9.99708 41.7426 10.065 41.5985C10.1274 41.4508 10.3535 41.4095 10.5626 41.5088C10.7726 41.6028 10.8922 41.8004 10.8195 41.9445ZM12.2405 43.2123C12.1027 43.3401 11.8334 43.2807 11.6505 43.0789C11.4616 42.8774 11.4262 42.6083 11.566 42.4785C11.7081 42.3509 11.9693 42.4105 12.1587 42.6121C12.3477 42.8158 12.3844 43.0834 12.2403 43.2125L12.2405 43.2123ZM13.2154 44.8345C13.0382 44.9575 12.7487 44.8422 12.5699 44.5853C12.393 44.3286 12.393 44.0204 12.5738 43.897C12.7532 43.7735 13.0382 43.8845 13.2195 44.1394C13.3962 44.4006 13.3962 44.7087 13.2152 44.8347L13.2154 44.8345ZM14.8639 46.7134C14.7055 46.8878 14.3684 46.8412 14.1214 46.6028C13.869 46.3699 13.7986 46.0393 13.9574 45.8647C14.1176 45.6898 14.4567 45.7389 14.7055 45.9752C14.9563 46.2077 15.0329 46.5407 14.8641 46.7134H14.8639ZM16.9945 47.3477C16.9249 47.5739 16.6 47.6767 16.2729 47.5807C15.9462 47.4816 15.7323 47.2166 15.7982 46.988C15.8662 46.7603 16.1924 46.6531 16.5221 46.756C16.8483 46.8545 17.0627 47.1176 16.9947 47.3477H16.9945ZM19.4196 47.6167C19.4277 47.855 19.1502 48.0526 18.8067 48.0569C18.4612 48.0644 18.1819 47.8716 18.1782 47.6373C18.1782 47.3967 18.4494 47.2009 18.7947 47.1953C19.1382 47.1885 19.4196 47.3799 19.4196 47.6167ZM21.8017 47.5254C21.8429 47.7578 21.6041 47.9966 21.2631 48.0601C20.9278 48.1212 20.6174 47.9778 20.5746 47.7474C20.5329 47.5091 20.7762 47.2705 21.1109 47.2086C21.4525 47.1493 21.7582 47.2891 21.8017 47.5254Z" fill="#6F7071"/>
</svg>
