<svg width="181" height="180" viewBox="0 0 181 180" fill="none" xmlns="http://www.w3.org/2000/svg">
<circle cx="90.2651" cy="90" r="86" stroke="#3E3E3E" stroke-width="8"/>
<path fill-rule="evenodd" clip-rule="evenodd" d="M172.825 90.0001C172.825 135.287 136.112 172 90.8247 172C62.9546 172 38.332 158.096 23.5149 136.846C22.7188 135.705 21.4264 135 20.0346 135C16.8497 135 14.8897 138.436 16.6987 141.057C32.9336 164.583 60.0787 180 90.8247 180C140.53 180 180.825 139.706 180.825 90.0001C180.825 41.6355 142.675 2.18129 94.8269 0.0874536C92.6198 -0.00912505 90.8247 1.79092 90.8247 4.00006C90.8247 6.2092 92.6181 7.98993 94.8247 8.09591C138.254 10.182 172.825 46.0538 172.825 90.0001Z" fill="#CDCDCD"/>
</svg>
