<svg width="180" height="180" viewBox="0 0 180 180" fill="none" xmlns="http://www.w3.org/2000/svg">
<circle cx="90" cy="90" r="86" stroke="#3E3E3E" stroke-width="8"/>
<path fill-rule="evenodd" clip-rule="evenodd" d="M172 90.0001C172 135.287 135.287 172 90 172C46.0538 172 10.1819 137.43 8.09585 94.0001C7.98986 91.7935 6.20914 90.0001 4 90.0001C1.79086 90.0001 -0.00918608 91.7952 0.0873926 94.0022C2.18122 141.851 41.6355 180 90 180C139.706 180 180 139.706 180 90.0001C180 41.6355 141.851 2.18129 94.0022 0.0874536C91.7952 -0.00912505 90 1.79092 90 4.00006C90 6.2092 91.7934 7.98993 94 8.09591C137.43 10.182 172 46.0538 172 90.0001Z" fill="#C4C4C4"/>
<path d="M72.0816 89.2539L62.1852 112H56.8238L66.7379 90.5195H54.0113V86.4062H72.0816V89.2539ZM79.707 99.4141L81.1836 86.4062H95.5273V90.6426H85.3496L84.7168 96.1445C85.9238 95.5 87.207 95.1777 88.5664 95.1777C91.0039 95.1777 92.9141 95.9336 94.2969 97.4453C95.6797 98.957 96.3711 101.072 96.3711 103.791C96.3711 105.443 96.0195 106.926 95.3164 108.238C94.625 109.539 93.6289 110.553 92.3281 111.279C91.0273 111.994 89.4922 112.352 87.7227 112.352C86.1758 112.352 84.7402 112.041 83.416 111.42C82.0918 110.787 81.043 109.902 80.2695 108.766C79.5078 107.629 79.1035 106.334 79.0566 104.881H84.084C84.1895 105.947 84.5586 106.779 85.1914 107.377C85.8359 107.963 86.6738 108.256 87.7051 108.256C88.8535 108.256 89.7383 107.846 90.3594 107.025C90.9805 106.193 91.291 105.021 91.291 103.51C91.291 102.057 90.9336 100.943 90.2188 100.17C89.5039 99.3965 88.4902 99.0098 87.1777 99.0098C85.9707 99.0098 84.9922 99.3262 84.2422 99.959L83.75 100.416L79.707 99.4141ZM103.153 91.3281C103.153 89.7578 103.663 88.4863 104.682 87.5137C105.702 86.5293 107.038 86.0371 108.69 86.0371C110.366 86.0371 111.713 86.5234 112.733 87.4961C113.752 88.457 114.262 89.7637 114.262 91.416V92.6816C114.262 94.2637 113.752 95.5352 112.733 96.4961C111.713 97.457 110.377 97.9375 108.725 97.9375C107.061 97.9375 105.713 97.457 104.682 96.4961C103.663 95.5234 103.153 94.2168 103.153 92.5762V91.3281ZM106.528 92.6816C106.528 93.3848 106.727 93.9531 107.125 94.3867C107.536 94.8086 108.069 95.0195 108.725 95.0195C109.381 95.0195 109.903 94.8027 110.289 94.3691C110.676 93.9355 110.87 93.3555 110.87 92.6289V91.3281C110.87 90.625 110.676 90.0566 110.289 89.623C109.903 89.1895 109.37 88.9727 108.69 88.9727C108.045 88.9727 107.524 89.1895 107.125 89.623C106.727 90.0449 106.528 90.6367 106.528 91.3984V92.6816ZM115.387 105.725C115.387 104.143 115.903 102.871 116.934 101.91C117.965 100.938 119.301 100.451 120.942 100.451C122.606 100.451 123.948 100.932 124.967 101.893C125.998 102.842 126.514 104.154 126.514 105.83V107.096C126.514 108.666 126.01 109.938 125.002 110.91C123.995 111.871 122.653 112.352 120.977 112.352C119.289 112.352 117.936 111.865 116.916 110.893C115.897 109.92 115.387 108.631 115.387 107.025V105.725ZM118.762 107.096C118.762 107.74 118.973 108.291 119.395 108.748C119.817 109.205 120.344 109.434 120.977 109.434C122.407 109.434 123.121 108.643 123.121 107.061V105.725C123.121 105.021 122.922 104.459 122.524 104.037C122.125 103.604 121.598 103.387 120.942 103.387C120.286 103.387 119.758 103.604 119.36 104.037C118.961 104.459 118.762 105.039 118.762 105.777V107.096ZM109.727 110.084L107.248 108.748L119.746 88.7441L122.225 90.0801L109.727 110.084Z" fill="#CDCDCD"/>
</svg>
