<svg width="54" height="60" viewBox="0 0 54 60" fill="none" xmlns="http://www.w3.org/2000/svg">
<path d="M19.747 57.686C17.787 57.686 16.219 57.4573 15.043 57C13.8997 56.5753 12.6583 55.8403 11.319 54.795L10.486 57H2.744V45.338H10.437C10.927 46.6773 11.6783 47.6247 12.691 48.18C13.7363 48.7353 15.0103 49.013 16.513 49.013C17.4277 49.013 18.2117 48.8333 18.865 48.474C19.5183 48.082 19.845 47.5757 19.845 46.955C19.845 46.171 19.502 45.583 18.816 45.191C18.1627 44.799 17.2317 44.4397 16.023 44.113C12.9523 43.2637 10.4207 42.349 8.428 41.369C6.468 40.389 4.88367 38.9843 3.675 37.155C2.46633 35.3257 1.862 32.9083 1.862 29.903C1.862 27.5837 2.352 25.542 3.332 23.778C4.34467 22.014 5.782 20.642 7.644 19.662C9.506 18.682 11.6947 18.192 14.21 18.192C17.2807 18.192 19.7143 19.172 21.511 21.132L22.736 18.878H29.596V30.295H22.246C21.56 28.8577 20.7923 27.8613 19.943 27.306C19.1263 26.7507 17.9993 26.473 16.562 26.473C15.4513 26.473 14.5857 26.669 13.965 27.061C13.377 27.453 13.083 27.992 13.083 28.678C13.083 29.4293 13.5077 30.0173 14.357 30.442C15.239 30.834 16.4803 31.2097 18.081 31.569C20.923 32.2223 23.324 33.039 25.284 34.019C27.2767 34.9663 28.861 36.3383 30.037 38.135C31.2457 39.899 31.85 42.1857 31.85 44.995C31.85 47.3797 31.3437 49.5357 30.331 51.463C29.351 53.3903 27.93 54.9093 26.068 56.02C24.2387 57.1307 22.1317 57.686 19.747 57.686Z" fill="#DCDCDC"/>
<path d="M18.303 57V48.572H22.909V27.355H18.303V18.927H50.447V34.068H44.322L42.019 27.355H35.159V33.578H41.284V39.85H35.159V48.572H42.019L44.322 40.781H50.447V57H18.303Z" fill="url(#paint0_linear)"/>
<defs>
<linearGradient id="paint0_linear" x1="71.1373" y1="24.3103" x2="37.2353" y2="24.3103" gradientUnits="userSpaceOnUse">
<stop offset="0.822917" stop-color="#DCDCDC"/>
<stop offset="0.9999" stop-color="white"/>
<stop offset="1" stop-color="#402B2B" stop-opacity="0"/>
</linearGradient>
</defs>
</svg>
