<svg width="40" height="40" viewBox="0 0 40 40" fill="none" xmlns="http://www.w3.org/2000/svg">
<g clip-path="url(#clip0)">
<path d="M36.1855 12.1238C36.1474 15.3879 35.1908 20.6209 30.8496 27.0139C23.1373 38.3716 14.2726 39.7954 12.5739 39.9656C12.5685 39.9662 12.5481 39.968 12.5427 39.9686C12.4746 39.975 12.4287 39.9785 12.4053 39.9801C12.2323 39.9934 12.0573 40.0004 11.8855 40.0004C10.9134 40.0004 9.96708 39.7867 9.1021 39.3771C8.75813 39.5302 8.38112 39.6125 7.99304 39.6125C7.44606 39.6125 6.91741 39.4498 6.46407 39.1421L5.89232 38.7536C4.84468 38.0423 4.13659 36.9652 3.89895 35.7212C3.66111 34.477 3.92211 33.2149 4.63363 32.1671L8.17409 26.9535C9.0578 25.6521 10.5253 24.8751 12.0998 24.8751C13.0512 24.8751 13.9713 25.1583 14.7606 25.6942L15.3324 26.0826C15.9339 26.4909 16.3407 27.1095 16.4773 27.8241C16.5171 28.0329 16.5326 28.2426 16.5242 28.45C16.8948 28.7972 17.224 29.1875 17.5046 29.6114C19.1662 28.5306 22.0546 26.3614 24.2085 23.1896C26.337 20.0552 27.1702 16.8176 27.4896 14.998C26.9724 14.8941 26.4703 14.728 25.9932 14.5018C25.6492 14.6551 25.2722 14.7372 24.8842 14.7372C24.3374 14.7372 23.8087 14.5747 23.3556 14.2672L22.7836 13.8785C21.736 13.1672 21.0279 12.0901 20.7903 10.8462C20.5524 9.60195 20.8134 8.33983 21.5249 7.29199L25.0654 2.07816C25.9489 0.776768 27.4165 0 28.9909 0C29.9425 0 30.8625 0.283157 31.6517 0.819261L32.2231 1.20714C33.0304 1.75553 33.4501 2.66401 33.4137 3.5741C34.2179 4.3273 34.8255 5.28029 35.1672 6.338C35.3199 6.65177 35.4971 7.12403 35.689 7.84884C36.0362 9.1595 36.2032 10.598 36.1855 12.1238Z" fill="#DCDCDC"/>
</g>
<defs>
<clipPath id="clip0">
<rect width="40" height="40" fill="white"/>
</clipPath>
</defs>
</svg>
