<svg width="42" height="40" viewBox="0 0 42 40" fill="none" xmlns="http://www.w3.org/2000/svg">
<path d="M7.63406 27.3554L9.42876 39.6736H31.6957L33.4904 27.3554H7.63406ZM20.5623 34.5782C19.6389 34.5782 18.8904 34.0861 18.8904 33.4794C18.8904 32.8726 19.6389 32.3806 20.5623 32.3806C21.4856 32.3806 22.2341 32.8725 22.2341 33.4794C22.2341 34.0863 21.4856 34.5782 20.5623 34.5782ZM37.4803 37.4384H33.2991L34.9524 26.0908H6.17205L7.82539 37.4384H3.64418C1.25896 37.4384 -0.347788 34.9974 0.595505 32.8064L6.5086 19.0733C7.65703 16.4058 10.2826 14.6778 13.1867 14.6778H15.5137L19.19 20.1494L19.9394 16.5745L18.685 14.6778H22.4586L21.204 16.5745L21.9518 20.1243L25.6112 14.6778H27.9383C30.8424 14.6778 33.468 16.4058 34.6164 19.0733L40.5293 32.8064C41.4723 34.9973 39.8657 37.4384 37.4803 37.4384ZM20.5623 0.326599C24.1761 0.326599 27.1057 3.25624 27.1057 6.87005C27.1057 10.4839 24.1761 13.4133 20.5623 13.4133C16.9484 13.4133 14.0188 10.4837 14.0188 6.86989C14.0188 3.25608 16.9484 0.326599 20.5623 0.326599Z" fill="#DCDCDC"/>
</svg>
