<svg width="180" height="180" viewBox="0 0 180 180" fill="none" xmlns="http://www.w3.org/2000/svg">
<circle cx="90" cy="90" r="86" stroke="#3E3E3E" stroke-width="8"/>
<path fill-rule="evenodd" clip-rule="evenodd" d="M76.5153 170.932C70.1749 170.932 68.9564 177.73 75.214 178.752C79.9697 179.528 84.8507 179.932 89.8259 179.932C139.532 179.932 179.826 139.638 179.826 89.9319C179.826 41.5674 141.677 2.11317 93.8281 0.0193384C91.6211 -0.0772403 89.8259 1.72281 89.8259 3.93194C89.8259 6.14108 91.6194 7.92181 93.826 8.0278C137.255 10.1138 171.826 45.9857 171.826 89.9319C171.826 135.219 135.113 171.932 89.8259 171.932C85.6169 171.932 81.482 171.615 77.4438 171.003C77.1364 170.957 76.8262 170.932 76.5153 170.932Z" fill="#CDCDCD"/>
</svg>
