<svg width="181" height="180" viewBox="0 0 181 180" fill="none" xmlns="http://www.w3.org/2000/svg">
<circle cx="90" cy="90" r="86" stroke="#3E3E3E" stroke-width="8"/>
<path fill-rule="evenodd" clip-rule="evenodd" d="M172.265 89.9319C172.265 135.219 135.553 171.932 90.2652 171.932C75.1921 171.932 61.0689 167.865 48.933 160.769C48.2298 160.357 47.4323 160.132 46.6177 160.132C42.4046 160.132 40.7257 165.201 44.3474 167.353C57.7905 175.344 73.492 179.932 90.2652 179.932C139.971 179.932 180.265 139.638 180.265 89.9319C180.265 41.5674 142.116 2.11317 94.2673 0.0193384C92.0603 -0.0772403 90.2652 1.72281 90.2652 3.93194C90.2652 6.14108 92.0586 7.92181 94.2652 8.0278C137.695 10.1138 172.265 45.9857 172.265 89.9319Z" fill="#CDCDCD"/>
</svg>
