<svg width="40" height="40" viewBox="0 0 40 40" fill="none" xmlns="http://www.w3.org/2000/svg">
<path d="M1.31554 26.3565H2.84939V40H14.2837V26.3565H15.8176V9.98186H1.31554V26.3565ZM3.78976 12.4561H7.32939V20.1709H9.80362V12.4561H13.3433V23.8822H11.8094V37.5258H5.32362V23.8823H3.78976V12.4561Z" fill="#DCDCDC"/>
<path d="M8.5665 8.32899C10.8628 8.32899 12.731 6.46078 12.731 4.16454C12.731 1.86829 10.8628 0 8.5665 0C6.27018 0 4.40205 1.86821 4.40205 4.16445C4.40205 6.4607 6.27018 8.32899 8.5665 8.32899ZM8.5665 2.47423C9.49854 2.47423 10.2567 3.2325 10.2567 4.16445C10.2567 5.09641 9.49854 5.85468 8.5665 5.85468C7.63446 5.85468 6.87628 5.09641 6.87628 4.16445C6.87628 3.2325 7.63446 2.47423 8.5665 2.47423Z" fill="#DCDCDC"/>
<path d="M34.5688 8.23118C36.8382 8.23118 38.6844 6.38491 38.6844 4.11563C38.6844 1.84627 36.8382 0 34.5688 0C32.2994 0 30.4533 1.84627 30.4533 4.11563C30.4533 6.38491 32.2995 8.23118 34.5688 8.23118ZM34.5688 2.47423C35.4739 2.47423 36.2101 3.21056 36.2101 4.11563C36.2101 5.0207 35.4738 5.75695 34.5688 5.75695C33.6638 5.75695 32.9275 5.02062 32.9275 4.11563C32.9275 3.21056 33.6638 2.47423 34.5688 2.47423Z" fill="#DCDCDC"/>
<path d="M34.5688 31.7688C32.2994 31.7688 30.4533 33.6151 30.4533 35.8844C30.4533 38.1537 32.2995 40 34.5688 40C36.8381 40 38.6844 38.1537 38.6844 35.8844C38.6844 33.6151 36.8382 31.7688 34.5688 31.7688ZM34.5688 37.5258C33.6637 37.5258 32.9275 36.7894 32.9275 35.8844C32.9275 34.9793 33.6638 34.2431 34.5688 34.2431C35.4738 34.2431 36.2101 34.9794 36.2101 35.8844C36.2102 36.7894 35.4739 37.5258 34.5688 37.5258Z" fill="#DCDCDC"/>
<path d="M34.5688 21.1792C32.2994 21.1792 30.4533 23.0255 30.4533 25.2948C30.4533 27.5641 32.2995 29.4104 34.5688 29.4104C36.8381 29.4104 38.6844 27.5641 38.6844 25.2948C38.6844 23.0255 36.8382 21.1792 34.5688 21.1792ZM34.5688 26.9362C33.6637 26.9362 32.9275 26.1998 32.9275 25.2948C32.9275 24.3897 33.6638 23.6534 34.5688 23.6534C35.4738 23.6534 36.2101 24.3898 36.2101 25.2948C36.2102 26.1998 35.4739 26.9362 34.5688 26.9362Z" fill="#DCDCDC"/>
<path d="M34.5688 10.5896C32.2994 10.5896 30.4533 12.4359 30.4533 14.7052C30.4533 16.9746 32.2995 18.8208 34.5688 18.8208C36.8381 18.8208 38.6844 16.9745 38.6844 14.7052C38.6844 12.4359 36.8382 10.5896 34.5688 10.5896ZM34.5688 16.3466C33.6637 16.3466 32.9275 15.6102 32.9275 14.7052C32.9275 13.8002 33.6638 13.0638 34.5688 13.0638C35.4738 13.0638 36.2101 13.8002 36.2101 14.7052C36.2102 15.6102 35.4739 16.3466 34.5688 16.3466Z" fill="#DCDCDC"/>
<path d="M21.9808 18.7629H18.7041V21.2371H21.9808V37.1215H27.7316V34.6472H24.455V26.5319H27.7316V24.0576H24.455V15.9423H27.7316V13.4681H24.455V5.35274H27.7316V2.87851H21.9808V18.7629Z" fill="#DCDCDC"/>
</svg>
